<?xml version="1.0" encoding="UTF-8" standalone="no"?>
<!DOCTYPE svg PUBLIC "-//W3C//DTD SVG 1.1//EN"
 "http://www.w3.org/Graphics/SVG/1.1/DTD/svg11.dtd">
<!-- Generated by graphviz version 2.40.1 (0)
 -->
<!-- Title: snakemake_dag Pages: 1 -->
<svg width="260pt" height="476pt"
 viewBox="0.00 0.00 259.50 476.00" xmlns="http://www.w3.org/2000/svg" xmlns:xlink="http://www.w3.org/1999/xlink">
<g id="graph0" class="graph" transform="scale(1 1) rotate(0) translate(4 472)">
<title>snakemake_dag</title>
<polygon fill="#ffffff" stroke="transparent" points="-4,4 -4,-472 255.5,-472 255.5,4 -4,4"/>
<!-- 0 -->
<g id="node1" class="node">
<title>0</title>
<path fill="none" stroke="#56b1d8" stroke-width="2" d="M116,-36C116,-36 86,-36 86,-36 80,-36 74,-30 74,-24 74,-24 74,-12 74,-12 74,-6 80,0 86,0 86,0 116,0 116,0 122,0 128,-6 128,-12 128,-12 128,-24 128,-24 128,-30 122,-36 116,-36"/>
<text text-anchor="middle" x="101" y="-15.5" font-family="sans" font-size="10.00" fill="#000000">all</text>
</g>
<!-- 1 -->
<g id="node2" class="node">
<title>1</title>
<path fill="none" stroke="#d8b456" stroke-width="2" d="M42,-108C42,-108 12,-108 12,-108 6,-108 0,-102 0,-96 0,-96 0,-84 0,-84 0,-78 6,-72 12,-72 12,-72 42,-72 42,-72 48,-72 54,-78 54,-84 54,-84 54,-96 54,-96 54,-102 48,-108 42,-108"/>
<text text-anchor="middle" x="27" y="-87.5" font-family="sans" font-size="10.00" fill="#000000">qc</text>
</g>
<!-- 1&#45;&gt;0 -->
<g id="edge3" class="edge">
<title>1&#45;&gt;0</title>
<path fill="none" stroke="#c0c0c0" stroke-width="2" d="M45.6733,-71.8314C54.5249,-63.219 65.2486,-52.7851 74.8895,-43.4048"/>
<polygon fill="#c0c0c0" stroke="#c0c0c0" stroke-width="2" points="77.6061,-45.645 82.3326,-36.1628 72.7246,-40.6279 77.6061,-45.645"/>
</g>
<!-- 2 -->
<g id="node3" class="node">
<title>2</title>
<path fill="none" stroke="#56d86b" stroke-width="2" d="M97,-324C97,-324 67,-324 67,-324 61,-324 55,-318 55,-312 55,-312 55,-300 55,-300 55,-294 61,-288 67,-288 67,-288 97,-288 97,-288 103,-288 109,-294 109,-300 109,-300 109,-312 109,-312 109,-318 103,-324 97,-324"/>
<text text-anchor="middle" x="82" y="-303.5" font-family="sans" font-size="10.00" fill="#000000">qc_trim</text>
</g>
<!-- 2&#45;&gt;0 -->
<g id="edge2" class="edge">
<title>2&#45;&gt;0</title>
<path fill="none" stroke="#c0c0c0" stroke-width="2" d="M83.1885,-287.9843C86.4007,-239.2939 95.2739,-104.7961 99.149,-46.0573"/>
<polygon fill="#c0c0c0" stroke="#c0c0c0" stroke-width="2" points="102.6459,-46.2176 99.8119,-36.0089 95.6611,-45.7568 102.6459,-46.2176"/>
</g>
<!-- 3 -->
<g id="node4" class="node">
<title>3</title>
<path fill="none" stroke="#9fd856" stroke-width="2" d="M97,-468C97,-468 67,-468 67,-468 61,-468 55,-462 55,-456 55,-456 55,-444 55,-444 55,-438 61,-432 67,-432 67,-432 97,-432 97,-432 103,-432 109,-438 109,-444 109,-444 109,-456 109,-456 109,-462 103,-468 97,-468"/>
<text text-anchor="middle" x="82" y="-447.5" font-family="sans" font-size="10.00" fill="#000000">trim</text>
</g>
<!-- 3&#45;&gt;2 -->
<g id="edge5" class="edge">
<title>3&#45;&gt;2</title>
<path fill="none" stroke="#c0c0c0" stroke-width="2" d="M82,-431.7623C82,-407.201 82,-363.2474 82,-334.3541"/>
<polygon fill="#c0c0c0" stroke="#c0c0c0" stroke-width="2" points="85.5001,-334.0896 82,-324.0896 78.5001,-334.0897 85.5001,-334.0896"/>
</g>
<!-- 5 -->
<g id="node6" class="node">
<title>5</title>
<path fill="none" stroke="#56d8c9" stroke-width="2" d="M169,-396C169,-396 139,-396 139,-396 133,-396 127,-390 127,-384 127,-384 127,-372 127,-372 127,-366 133,-360 139,-360 139,-360 169,-360 169,-360 175,-360 181,-366 181,-372 181,-372 181,-384 181,-384 181,-390 175,-396 169,-396"/>
<text text-anchor="middle" x="154" y="-375.5" font-family="sans" font-size="10.00" fill="#000000">align</text>
</g>
<!-- 3&#45;&gt;5 -->
<g id="edge7" class="edge">
<title>3&#45;&gt;5</title>
<path fill="none" stroke="#c0c0c0" stroke-width="2" d="M100.1686,-431.8314C108.7152,-423.2848 119.0557,-412.9443 128.3802,-403.6198"/>
<polygon fill="#c0c0c0" stroke="#c0c0c0" stroke-width="2" points="130.9905,-405.9592 135.5867,-396.4133 126.0408,-401.0095 130.9905,-405.9592"/>
</g>
<!-- 4 -->
<g id="node5" class="node">
<title>4</title>
<path fill="none" stroke="#d85656" stroke-width="2" d="M169,-324C169,-324 139,-324 139,-324 133,-324 127,-318 127,-312 127,-312 127,-300 127,-300 127,-294 133,-288 139,-288 139,-288 169,-288 169,-288 175,-288 181,-294 181,-300 181,-300 181,-312 181,-312 181,-318 175,-324 169,-324"/>
<text text-anchor="middle" x="154" y="-303.5" font-family="sans" font-size="10.00" fill="#000000">count</text>
</g>
<!-- 4&#45;&gt;0 -->
<g id="edge1" class="edge">
<title>4&#45;&gt;0</title>
<path fill="none" stroke="#c0c0c0" stroke-width="2" d="M150.6846,-287.9843C141.7242,-239.2939 116.9729,-104.7961 106.1633,-46.0573"/>
<polygon fill="#c0c0c0" stroke="#c0c0c0" stroke-width="2" points="109.5663,-45.2102 104.3141,-36.0089 102.6819,-46.4772 109.5663,-45.2102"/>
</g>
<!-- 9 -->
<g id="node10" class="node">
<title>9</title>
<path fill="none" stroke="#ced856" stroke-width="2" d="M212,-252C212,-252 166,-252 166,-252 160,-252 154,-246 154,-240 154,-240 154,-228 154,-228 154,-222 160,-216 166,-216 166,-216 212,-216 212,-216 218,-216 224,-222 224,-228 224,-228 224,-240 224,-240 224,-246 218,-252 212,-252"/>
<text text-anchor="middle" x="189" y="-231.5" font-family="sans" font-size="10.00" fill="#000000">checkpoint</text>
</g>
<!-- 4&#45;&gt;9 -->
<g id="edge11" class="edge">
<title>4&#45;&gt;9</title>
<path fill="none" stroke="#c0c0c0" stroke-width="2" d="M162.832,-287.8314C166.6986,-279.8771 171.3206,-270.369 175.5968,-261.5723"/>
<polygon fill="#c0c0c0" stroke="#c0c0c0" stroke-width="2" points="178.8249,-262.9371 180.0491,-252.4133 172.5293,-259.8768 178.8249,-262.9371"/>
</g>
<!-- 5&#45;&gt;4 -->
<g id="edge6" class="edge">
<title>5&#45;&gt;4</title>
<path fill="none" stroke="#c0c0c0" stroke-width="2" d="M154,-359.8314C154,-352.131 154,-342.9743 154,-334.4166"/>
<polygon fill="#c0c0c0" stroke="#c0c0c0" stroke-width="2" points="157.5001,-334.4132 154,-324.4133 150.5001,-334.4133 157.5001,-334.4132"/>
</g>
<!-- 6 -->
<g id="node7" class="node">
<title>6</title>
<path fill="none" stroke="#5682d8" stroke-width="2" d="M169,-468C169,-468 139,-468 139,-468 133,-468 127,-462 127,-456 127,-456 127,-444 127,-444 127,-438 133,-432 139,-432 139,-432 169,-432 169,-432 175,-432 181,-438 181,-444 181,-444 181,-456 181,-456 181,-462 175,-468 169,-468"/>
<text text-anchor="middle" x="154" y="-447.5" font-family="sans" font-size="10.00" fill="#000000">index</text>
</g>
<!-- 6&#45;&gt;5 -->
<g id="edge8" class="edge">
<title>6&#45;&gt;5</title>
<path fill="none" stroke="#c0c0c0" stroke-width="2" d="M154,-431.8314C154,-424.131 154,-414.9743 154,-406.4166"/>
<polygon fill="#c0c0c0" stroke="#c0c0c0" stroke-width="2" points="157.5001,-406.4132 154,-396.4133 150.5001,-406.4133 157.5001,-406.4132"/>
</g>
<!-- 7 -->
<g id="node8" class="node">
<title>7</title>
<path fill="none" stroke="#56d89a" stroke-width="2" d="M239.5,-108C239.5,-108 160.5,-108 160.5,-108 154.5,-108 148.5,-102 148.5,-96 148.5,-96 148.5,-84 148.5,-84 148.5,-78 154.5,-72 160.5,-72 160.5,-72 239.5,-72 239.5,-72 245.5,-72 251.5,-78 251.5,-84 251.5,-84 251.5,-96 251.5,-96 251.5,-102 245.5,-108 239.5,-108"/>
<text text-anchor="middle" x="200" y="-87.5" font-family="sans" font-size="10.00" fill="#000000">normalise_counts</text>
</g>
<!-- 7&#45;&gt;0 -->
<g id="edge4" class="edge">
<title>7&#45;&gt;0</title>
<path fill="none" stroke="#c0c0c0" stroke-width="2" d="M175.0181,-71.8314C162.7072,-62.8779 147.6893,-51.9558 134.4063,-42.2955"/>
<polygon fill="#c0c0c0" stroke="#c0c0c0" stroke-width="2" points="136.1199,-39.214 125.9739,-36.1628 132.0027,-44.8752 136.1199,-39.214"/>
</g>
<!-- 8 -->
<g id="node9" class="node">
<title>8</title>
<path fill="none" stroke="#d88556" stroke-width="2" d="M226,-180C226,-180 164,-180 164,-180 158,-180 152,-174 152,-168 152,-168 152,-156 152,-156 152,-150 158,-144 164,-144 164,-144 226,-144 226,-144 232,-144 238,-150 238,-156 238,-156 238,-168 238,-168 238,-174 232,-180 226,-180"/>
<text text-anchor="middle" x="195" y="-159.5" font-family="sans" font-size="10.00" fill="#000000">merge_counts</text>
</g>
<!-- 8&#45;&gt;7 -->
<g id="edge9" class="edge">
<title>8&#45;&gt;7</title>
<path fill="none" stroke="#c0c0c0" stroke-width="2" d="M196.2617,-143.8314C196.7965,-136.131 197.4323,-126.9743 198.0266,-118.4166"/>
<polygon fill="#c0c0c0" stroke="#c0c0c0" stroke-width="2" points="201.52,-118.6317 198.7213,-108.4133 194.5368,-118.1467 201.52,-118.6317"/>
</g>
<!-- 9&#45;&gt;8 -->
<g id="edge10" class="edge">
<title>9&#45;&gt;8</title>
<path fill="none" stroke="#c0c0c0" stroke-width="2" d="M190.5141,-215.8314C191.1558,-208.131 191.9188,-198.9743 192.6319,-190.4166"/>
<polygon fill="#c0c0c0" stroke="#c0c0c0" stroke-width="2" points="196.1229,-190.6694 193.4656,-180.4133 189.1471,-190.088 196.1229,-190.6694"/>
</g>
</g>
</svg>
